<svg width="32" height="32" viewBox="0 0 32 32" fill="none" xmlns="http://www.w3.org/2000/svg">
<path fill-rule="evenodd" clip-rule="evenodd" d="M12.8819 0.462619C7.55491 1.54812 3.55891 4.68412 1.41491 9.46212C-3.26209 19.8841 4.21491 31.4456 15.6319 31.4456C24.1569 31.4456 31.1289 24.7236 31.2514 16.3861C31.3204 11.6971 30.0234 8.32862 26.9119 5.11612C24.5859 2.71462 24.1114 2.44562 22.2039 2.44562C20.0234 2.44562 17.1319 3.59312 17.1319 4.45862C17.1319 4.72662 16.7944 4.94562 16.3819 4.94562C15.8154 4.94562 15.6319 4.33462 15.6319 2.44562C15.6319 1.07062 15.4634 -0.029881 15.2569 0.000618993C15.0504 0.030619 13.9819 0.238619 12.8819 0.462619ZM19.1319 10.8586C23.9004 14.2976 22.0804 21.2711 16.2734 21.8121C9.06442 22.4836 6.75241 13.1396 13.3819 10.1276C15.1554 9.32162 17.3954 9.60612 19.1319 10.8586Z" fill="#E63846"/>
</svg>
